<?xml version="1.0" encoding="UTF-8"?>
<svg width="158.75mm" height="19.101mm" version="1.1" viewBox="0 0 158.75 19.101" xmlns="http://www.w3.org/2000/svg">
 <g transform="translate(-18.226 -104.39)">
  <g stroke-width=".26458" style="font-variant-caps:normal;font-variant-east-asian:normal;font-variant-ligatures:normal;font-variant-numeric:normal" aria-label="techbrunch">
   <g stroke-width=".26458">
    <path d="m29.732 122.76q-1.2954 0.7366-3.5306 0.7366-2.921 0-4.4958-1.397-1.5748-1.4224-1.5748-4.2418v-3.556h-1.905v-4.191h1.905v-3.8862h5.7404v3.8862h2.8448v4.191h-2.8448v3.5052q0 0.635 0.3302 0.9906t0.8636 0.3556q0.7366 0 1.2954-0.381z" style="font-variant-caps:normal;font-variant-east-asian:normal;font-variant-ligatures:normal;font-variant-numeric:normal"/>
    <path d="m45.582 116.28q0 0.127-0.0762 1.3462h-9.652q0.3048 0.7874 1.016 1.2192 0.7112 0.4064 1.778 0.4064 0.9144 0 1.524-0.2286 0.635-0.2286 1.3716-0.7874l2.9972 3.0226q-2.032 2.2352-6.0706 2.2352-2.5146 0-4.4196-0.9144-1.905-0.9398-2.9464-2.5908t-1.0414-3.7084q0-2.0828 1.016-3.7084 1.0414-1.651 2.8194-2.5654 1.8034-0.9144 4.0386-0.9144 2.1082 0 3.8354 0.8382 1.7526 0.8382 2.7686 2.4638 1.0414 1.6256 1.0414 3.8862zm-7.5946-3.2766q-0.889 0-1.4732 0.4826t-0.762 1.3716h4.4704q-0.1778-0.8636-0.762-1.3462-0.5842-0.508-1.4732-0.508z" style="font-variant-caps:normal;font-variant-east-asian:normal;font-variant-ligatures:normal;font-variant-numeric:normal"/>
    <path d="m54.853 123.49q-2.3622 0-4.2418-0.9144-1.8542-0.9144-2.921-2.5654-1.0414-1.651-1.0414-3.7338t1.0414-3.7084q1.0668-1.651 2.921-2.5654 1.8796-0.9144 4.2418-0.9144 2.54 0 4.3434 1.0922 1.8034 1.0922 2.4892 3.0226l-4.445 2.1844q-0.8128-1.8288-2.413-1.8288-1.016 0-1.7018 0.7112-0.6604 0.7112-0.6604 2.0066 0 1.3208 0.6604 2.032 0.6858 0.7112 1.7018 0.7112 1.6002 0 2.413-1.8288l4.445 2.1844q-0.6858 1.9304-2.4892 3.0226-1.8034 1.0922-4.3434 1.0922z" style="font-variant-caps:normal;font-variant-east-asian:normal;font-variant-ligatures:normal;font-variant-numeric:normal"/>
    <path d="m72.658 109.09q2.5654 0 4.1148 1.5494 1.5748 1.5494 1.5748 4.6736v7.9248h-5.7404v-6.9342q0-2.3876-1.7018-2.3876-0.9652 0-1.5748 0.6858-0.5842 0.6604-0.5842 2.1082v6.5278h-5.7404v-18.847h5.7404v6.0706q1.6002-1.3716 3.9116-1.3716z" style="font-variant-caps:normal;font-variant-east-asian:normal;font-variant-ligatures:normal;font-variant-numeric:normal"/>
   </g>
   <g fill="#ef6c00">
    <path d="m90.108 109.09q1.8288 0 3.3528 0.889 1.5494 0.8636 2.4384 2.5146 0.9144 1.6256 0.9144 3.7846t-0.9144 3.81q-0.889 1.651-2.4384 2.54-1.524 0.8636-3.3528 0.8636-2.5654 0-3.81-1.397v1.143h-5.461v-18.847h5.7404v5.8928q1.2192-1.1938 3.5306-1.1938zm-1.3716 9.9314q0.9906 0 1.6256-0.7112 0.635-0.7366 0.635-2.032t-0.635-2.0066-1.6256-0.7112-1.6256 0.7112-0.635 2.0066 0.635 2.032q0.635 0.7112 1.6256 0.7112z"/>
    <path d="m104.08 110.85q1.524-1.7526 4.4958-1.7526v5.08q-0.6858-0.1016-1.27-0.1016-2.9464 0-2.9464 2.9972v6.1722h-5.7404v-13.894h5.461z"/>
    <path d="m125.39 109.35v13.894h-5.461v-1.3208q-0.762 0.7874-1.778 1.1938-1.016 0.381-2.159 0.381-2.6416 0-4.2418-1.6002-1.6002-1.6256-1.6002-4.8768v-7.6708h5.7404v6.6802q0 1.4224 0.4572 2.032t1.3462 0.6096q0.8382 0 1.397-0.6604 0.5588-0.6858 0.5588-2.1336v-6.5278z"/>
    <path d="m137.58 109.09q2.5654 0 4.1148 1.5494 1.5748 1.5494 1.5748 4.6736v7.9248h-5.7404v-6.9342q0-2.3876-1.7018-2.3876-0.9652 0-1.5748 0.6858-0.5842 0.6604-0.5842 2.1082v6.5278h-5.7404v-13.894h5.461v1.3716q0.8128-0.8128 1.8796-1.2192t2.3114-0.4064z"/>
    <path d="m153.48 123.49q-2.3622 0-4.2418-0.9144-1.8542-0.9144-2.921-2.5654-1.0414-1.651-1.0414-3.7338t1.0414-3.7084q1.0668-1.651 2.921-2.5654 1.8796-0.9144 4.2418-0.9144 2.54 0 4.3434 1.0922t2.4892 3.0226l-4.445 2.1844q-0.8128-1.8288-2.413-1.8288-1.016 0-1.7018 0.7112-0.6604 0.7112-0.6604 2.0066 0 1.3208 0.6604 2.032 0.6858 0.7112 1.7018 0.7112 1.6002 0 2.413-1.8288l4.445 2.1844q-0.6858 1.9304-2.4892 3.0226t-4.3434 1.0922z"/>
    <path d="m171.29 109.09q2.5654 0 4.1148 1.5494 1.5748 1.5494 1.5748 4.6736v7.9248h-5.7404v-6.9342q0-2.3876-1.7018-2.3876-0.9652 0-1.5748 0.6858-0.5842 0.6604-0.5842 2.1082v6.5278h-5.7404v-18.847h5.7404v6.0706q1.6002-1.3716 3.9116-1.3716z"/>
   </g>
  </g>
 </g>
</svg>
